<?xml version="1.0" standalone="no"?>
<!DOCTYPE svg PUBLIC "-//W3C//DTD SVG 20010904//EN"
 "http://www.w3.org/TR/2001/REC-SVG-20010904/DTD/svg10.dtd">
<svg version="1.0" xmlns="http://www.w3.org/2000/svg"
 width="500.000000pt" height="450.000000pt" viewBox="500 500 1000 860"
 preserveAspectRatio="xMidYMid meet">
<metadata>
Created by potrace 1.16, written by Peter Selinger 2001-2019
</metadata>
<g transform="translate(0.000000,1860.000000) scale(0.100000,-0.100000)"
fill="#000000" stroke="none">
<path d="M9886 13536 c-215 -167 -472 -417 -681 -661 -214 -250 -410 -544
-565 -850 -71 -141 -159 -336 -183 -406 -3 -9 -59 -47 -124 -84 -233 -133
-499 -325 -713 -514 -261 -231 -542 -582 -724 -905 -193 -346 -367 -871 -421
-1278 -21 -157 -32 -431 -23 -567 l8 -110 -66 -88 c-91 -122 -280 -407 -349
-528 -268 -467 -447 -971 -539 -1517 -14 -81 -28 -173 -32 -206 l-6 -59 100
-41 c331 -138 800 -261 1167 -307 376 -46 740 -46 1160 0 l140 16 110 -66 c61
-37 184 -104 275 -150 359 -180 552 -248 905 -320 213 -43 332 -55 616 -62
521 -14 945 71 1512 300 100 41 293 144 439 235 l97 60 83 -14 c151 -25 260
-32 558 -33 410 -2 609 16 970 89 225 45 408 96 635 174 209 72 299 111 303
130 5 23 -45 351 -74 484 -73 341 -238 801 -396 1102 -144 273 -333 571 -460
722 l-40 48 -3 237 c-5 431 -56 744 -180 1118 -158 476 -388 891 -674 1215
-119 135 -294 311 -393 394 -196 166 -549 402 -684 457 -52 22 -54 24 -85 103
-87 218 -289 603 -422 801 -293 437 -656 827 -1021 1099 -49 36 -94 66 -100
66 -6 0 -60 -38 -120 -84z m234 -607 c226 -210 464 -498 636 -769 74 -115 198
-339 192 -345 -2 -2 -43 7 -92 20 -195 54 -412 88 -660 106 -295 20 -727 -18
-1100 -98 l-29 -6 48 89 c57 107 232 375 317 486 117 154 277 334 421 476 80
78 149 142 152 142 4 0 55 -45 115 -101z m260 -1473 c145 -23 295 -54 400 -82
107 -29 389 -120 406 -132 6 -4 28 -58 48 -121 131 -405 201 -990 162 -1351
-9 -80 -16 -148 -16 -152 0 -4 -42 36 -92 89 -258 267 -596 449 -958 515 -157
29 -509 31 -645 4 -371 -74 -688 -241 -949 -498 -49 -48 -91 -86 -93 -84 -2 1
-10 39 -19 82 -10 54 -15 138 -15 265 0 371 65 797 178 1174 17 57 21 61 73
87 162 79 571 182 825 207 61 6 124 13 140 15 65 9 465 -4 555 -18z m-2151
-620 c-82 -322 -118 -902 -75 -1231 9 -71 19 -137 21 -145 4 -11 -13 -22 -58
-39 -335 -127 -774 -412 -1166 -755 l-24 -21 6 82 c12 164 88 474 172 708 108
300 295 630 505 895 96 120 288 315 415 421 99 83 216 171 221 166 2 -1 -6
-38 -17 -81z m3670 -8 c58 -46 198 -175 311 -288 166 -165 222 -229 290 -327
267 -386 420 -719 505 -1098 26 -118 68 -407 63 -434 -2 -9 -33 12 -83 55
-256 221 -679 496 -1008 657 -122 60 -127 63 -122 89 30 172 30 688 1 943 -13
112 -51 350 -72 453 -3 17 -3 32 1 32 4 0 55 -37 114 -82z m-1589 -973 c381
-85 697 -300 912 -619 106 -158 166 -302 209 -502 31 -137 33 -447 5 -574 -66
-302 -183 -518 -400 -736 -203 -204 -417 -324 -691 -389 -325 -77 -652 -44
-940 95 -252 122 -429 273 -584 500 -332 485 -331 1133 2 1630 69 103 270 301
385 379 156 105 374 194 553 225 115 20 444 15 549 -9z m-2047 -912 c3 -16 -1
-56 -9 -91 -89 -384 -41 -805 131 -1167 90 -187 199 -339 362 -500 259 -259
569 -421 897 -468 l87 -13 -78 -77 c-186 -183 -463 -348 -823 -490 -273 -107
-636 -215 -683 -203 -64 16 -408 339 -550 516 -100 124 -247 349 -321 491 -72
137 -200 447 -240 579 -33 110 -61 243 -75 353 l-12 87 44 58 c257 332 622
615 1207 934 25 14 48 23 51 21 4 -1 9 -15 12 -30z m3655 -34 c88 -43 422
-260 557 -362 172 -130 404 -341 528 -481 l69 -79 -6 -56 c-20 -175 -120 -522
-220 -766 -110 -267 -306 -572 -547 -849 -97 -113 -140 -156 -284 -281 -147
-128 -122 -120 -261 -84 -65 16 -205 59 -311 94 -559 186 -964 410 -1104 612
-16 23 -29 44 -29 47 0 3 15 6 33 6 56 1 204 38 300 76 299 119 557 304 737
530 217 272 347 558 397 873 23 145 22 424 -1 546 -26 135 -30 179 -16 205 16
29 49 23 158 -31z m1603 -1517 c148 -251 332 -660 403 -898 36 -121 106 -398
106 -420 0 -6 -56 -30 -124 -53 -210 -70 -446 -119 -746 -156 -121 -15 -660
-33 -660 -22 0 3 38 45 84 94 176 185 284 327 461 603 136 213 288 549 368
812 23 75 45 134 49 132 4 -3 31 -44 59 -92z m-6901 -94 c83 -264 207 -527
374 -797 133 -212 247 -360 404 -523 l134 -138 -133 0 c-262 0 -596 29 -824
71 -146 27 -449 103 -527 133 -73 27 -70 14 -32 175 63 269 223 693 335 892
65 115 208 319 224 319 2 0 22 -60 45 -132z m3447 -1082 c285 -215 730 -447
1116 -581 76 -26 134 -51 130 -55 -11 -10 -224 -90 -343 -128 -360 -117 -604
-155 -990 -156 -307 0 -484 25 -789 110 -122 34 -326 112 -425 161 -59 30 -64
26 107 88 391 141 860 387 1087 569 25 20 46 36 47 36 2 0 29 -20 60 -44z"/>
</g>
</svg>
